<?xml version="1.0" encoding="UTF-8" standalone="no"?>
<!DOCTYPE svg PUBLIC "-//W3C//DTD SVG 1.1//EN" "http://www.w3.org/Graphics/SVG/1.1/DTD/svg11.dtd">
<svg width="100%" height="100%" viewBox="0 0 950 525" version="1.1" xmlns="http://www.w3.org/2000/svg" xmlns:xlink="http://www.w3.org/1999/xlink" xml:space="preserve" xmlns:serif="http://www.serif.com/" style="fill-rule:evenodd;clip-rule:evenodd;stroke-linejoin:round;stroke-miterlimit:2;">
    <g id="Grey-Background" serif:id="Grey Background">
        <g transform="matrix(1,0,0,0.964419,0,-0.24211)">
            <rect x="-7.864" y="-6.805" width="961.692" height="279.511" style="fill:rgb(57,57,57);"/>
        </g>
        <g transform="matrix(0.665742,0,0,0.665742,411.183,-56.3413)">
            <path d="M66.265,369.095C62.154,369.095 58.622,370.212 55.666,372.439C52.711,374.667 50.333,377.711 48.532,381.563C46.731,385.416 45.401,389.79 44.547,394.671C43.688,399.553 43.261,404.611 43.261,409.837C43.261,418.058 44.227,425.237 46.153,431.361C48.08,437.485 50.803,442.222 54.317,445.561C57.825,448.906 62.023,450.575 66.911,450.575C69.647,450.575 72.157,450.185 74.428,449.414C76.693,448.648 78.645,447.833 80.276,446.973L80.276,453.656C78.388,454.685 76.267,455.501 73.914,456.096C71.554,456.699 69.007,457.001 66.265,457.001C60.096,457.001 54.744,455.092 50.201,451.277C45.658,447.468 42.15,442.028 39.665,434.957C37.18,427.891 35.938,419.476 35.938,409.706C35.938,403.369 36.515,397.37 37.67,391.716C38.831,386.062 40.626,381.048 43.072,376.681C45.514,372.307 48.638,368.888 52.454,366.397C56.262,363.919 60.824,362.67 66.139,362.67C71.705,362.67 76.807,364.044 81.431,366.786L78.733,372.697C76.763,371.499 74.704,370.601 72.565,369.999C70.419,369.396 68.323,369.095 66.265,369.095Z" style="fill:rgb(132,205,183);fill-rule:nonzero;"/>
        </g>
        <g transform="matrix(0.665742,0,0,0.665742,411.183,-56.3413)">
            <path d="M194.511,455.713L187.571,455.713L187.571,410.861L155.443,410.861L155.443,455.713L148.503,455.713L148.503,363.956L155.443,363.956L155.443,404.31L187.571,404.31L187.571,363.956L194.511,363.956L194.511,455.713Z" style="fill:rgb(132,205,183);fill-rule:nonzero;"/>
        </g>
        <g transform="matrix(0.665742,0,0,0.665742,411.183,-56.3413)">
            <path d="M307.716,363.956L307.716,427.439C307.716,438.238 305.621,445.862 301.422,450.317C297.225,454.773 291.527,457.001 284.33,457.001C276.787,457.001 271.008,454.603 266.98,449.802C262.951,445.003 260.943,437.554 260.943,427.439L260.943,363.956L267.883,363.956L267.883,427.182C267.883,435.584 269.339,441.557 272.251,445.109C275.162,448.667 279.19,450.443 284.33,450.443C289.381,450.443 293.366,448.73 296.283,445.303C299.195,441.878 300.651,435.841 300.651,427.182L300.651,363.956L307.716,363.956Z" style="fill:rgb(132,205,183);fill-rule:nonzero;"/>
        </g>
        <g transform="matrix(0.665742,0,0,0.665742,411.183,-56.3413)">
            <path d="M389.058,370.381L382.243,370.381L382.243,409.706L391.241,409.706C396.55,409.706 400.704,408.056 403.709,404.761C406.702,401.461 408.202,396.259 408.202,389.143C408.202,382.548 406.702,377.773 403.709,374.818C400.704,371.862 395.821,370.381 389.058,370.381ZM389.183,363.956C397.836,363.956 404.368,365.907 408.786,369.804C413.197,373.707 415.399,380.107 415.399,389.018C415.399,402.213 410.305,410.566 400.107,414.074L419.001,455.713L411.032,455.713L393.557,415.875L382.243,415.875L382.243,455.713L375.303,455.713L375.303,363.956L389.183,363.956Z" style="fill:rgb(132,205,183);fill-rule:nonzero;"/>
        </g>
        <g transform="matrix(0.665742,0,0,0.665742,411.183,-56.3413)">
            <path d="M517.555,369.095C513.443,369.095 509.912,370.212 506.956,372.439C504.001,374.667 501.622,377.711 499.821,381.563C498.021,385.416 496.69,389.79 495.837,394.671C494.978,399.553 494.551,404.611 494.551,409.837C494.551,418.058 495.517,425.237 497.443,431.361C499.37,437.485 502.093,442.222 505.607,445.561C509.114,448.906 513.313,450.575 518.201,450.575C520.937,450.575 523.445,450.185 525.718,449.414C527.983,448.648 529.935,447.833 531.566,446.973L531.566,453.656C529.678,454.685 527.557,455.501 525.203,456.096C522.844,456.699 520.297,457.001 517.555,457.001C511.387,457.001 506.034,455.092 501.49,451.277C496.947,447.468 493.44,442.028 490.955,434.957C488.471,427.891 487.228,419.476 487.228,409.706C487.228,403.369 487.805,397.37 488.96,391.716C490.12,386.062 491.915,381.048 494.362,376.681C496.804,372.307 499.929,368.888 503.743,366.397C507.553,363.919 512.114,362.67 517.429,362.67C522.995,362.67 528.097,364.044 532.721,366.786L530.023,372.697C528.053,371.499 525.994,370.601 523.854,369.999C521.708,369.396 519.612,369.095 517.555,369.095Z" style="fill:rgb(132,205,183);fill-rule:nonzero;"/>
        </g>
        <g transform="matrix(0.665742,0,0,0.665742,411.183,-56.3413)">
            <path d="M645.801,455.713L638.86,455.713L638.86,410.861L606.733,410.861L606.733,455.713L599.793,455.713L599.793,363.956L606.733,363.956L606.733,404.31L638.86,404.31L638.86,363.956L645.801,363.956L645.801,455.713Z" style="fill:rgb(132,205,183);fill-rule:nonzero;"/>
        </g>
        <g transform="matrix(0.665742,0,0,0.665742,411.183,-56.3413)">
            <path d="M555.084,216.186L463.762,216.186L463.762,231.445L500.792,231.445L500.792,328.189L518.059,328.189L518.059,231.445L555.084,231.445L555.084,216.186Z" style="fill:white;fill-rule:nonzero;"/>
        </g>
        <g transform="matrix(0.665742,0,0,0.665742,411.183,-56.3413)">
            <path d="M382.064,328.189L382.064,216.014L364.792,216.014L364.792,293.033L304.057,216.186L289.74,216.186L289.74,328.189L307.003,328.189L307.003,244.914L371.786,328.189L382.064,328.189Z" style="fill:white;fill-rule:nonzero;"/>
        </g>
        <g transform="matrix(0.665742,0,0,0.665742,411.183,-56.3413)">
            <path d="M667.106,216.186L634.741,266.466L603.773,216.186L582.68,216.186L626.156,281.637L626.156,328.189L643.424,328.189L643.424,281.619L688.505,216.186L667.106,216.186Z" style="fill:white;fill-rule:nonzero;"/>
        </g>
        <g transform="matrix(0.665742,0,0,0.665742,411.183,-56.3413)">
            <rect x="414.924" y="216.186" width="17.1" height="112.003" style="fill:white;fill-rule:nonzero;"/>
        </g>
        <g transform="matrix(0.665742,0,0,0.665742,411.183,-56.3413)">
            <path d="M91.326,216.186L0,216.186L0,231.445L37.029,231.445L37.029,328.189L54.301,328.189L54.301,231.445L91.326,231.445L91.326,216.186Z" style="fill:white;fill-rule:nonzero;"/>
        </g>
        <g transform="matrix(0.665742,0,0,0.665742,411.183,-56.3413)">
            <path d="M134.636,231.946L170.534,231.946C186.002,231.946 192.926,242.52 192.926,253.003C192.926,263.484 186.002,274.059 170.534,274.059L134.636,274.059L134.636,231.946ZM193.302,328.189L214.456,328.189L178.535,287.69L182.574,286.869C206.604,281.99 210.194,263.243 210.194,252.502C210.194,234.544 197.926,216.348 170.521,216.186C161.272,216.186 152.015,216.144 142.753,216.103C134.293,216.061 125.829,216.024 117.364,216.014L117.364,328.189L134.636,328.189L134.636,289.16L159.273,289.16L193.302,328.189Z" style="fill:white;fill-rule:nonzero;"/>
        </g>
        <g transform="matrix(0.665742,0,0,0.665742,411.183,-56.3413)">
            <rect x="237.72" y="216.186" width="17.1" height="112.003" style="fill:white;fill-rule:nonzero;"/>
        </g>
    </g>
    <g id="Logo">
        <g transform="matrix(1.59558,0,0,1.59558,35.2373,16.3938)">
            <path d="M73.479,160.553C73.034,160.553 72.583,160.513 72.13,160.433C67.974,159.692 65.205,155.723 65.944,151.567L81.232,65.753C81.972,61.595 85.955,58.842 90.098,59.567C94.254,60.309 97.023,64.277 96.283,68.433L80.996,154.248C80.336,157.95 77.113,160.553 73.479,160.553Z" style="fill:rgb(132,205,183);fill-rule:nonzero;"/>
        </g>
        <g transform="matrix(1.59558,0,0,1.59558,35.2373,16.3938)">
            <path d="M102.365,160.553C101.919,160.553 101.469,160.513 101.016,160.433C96.86,159.692 94.09,155.723 94.83,151.567L110.118,65.753C110.859,61.595 114.837,58.842 118.984,59.567C123.139,60.309 125.909,64.277 125.169,68.433L109.881,154.248C109.222,157.95 105.999,160.553 102.365,160.553Z" style="fill:rgb(132,205,183);fill-rule:nonzero;"/>
        </g>
        <g transform="matrix(1.59558,0,0,1.59558,35.2373,16.3938)">
            <path d="M131.251,160.553C130.806,160.553 130.354,160.513 129.901,160.433C125.747,159.692 122.977,155.723 123.717,151.567L139.004,65.753C139.746,61.595 143.72,58.842 147.871,59.567C152.026,60.309 154.795,64.277 154.056,68.433L138.768,154.248C138.108,157.95 134.885,160.553 131.251,160.553Z" style="fill:rgb(132,205,183);fill-rule:nonzero;"/>
        </g>
        <g transform="matrix(1.59558,0,0,1.59558,35.2373,16.3938)">
            <path d="M110,33.87C68.021,33.87 33.869,68.022 33.869,110.001C33.869,151.979 68.021,186.13 110,186.13C151.978,186.13 186.129,151.979 186.129,110.001C186.129,68.022 151.978,33.87 110,33.87ZM110,198.864C61,198.864 21.136,158.999 21.136,110.001C21.136,61.002 61,21.136 110,21.136C158.999,21.136 198.864,61.002 198.864,110.001C198.864,158.999 158.999,198.864 110,198.864Z" style="fill:rgb(132,205,183);fill-rule:nonzero;"/>
        </g>
    </g>
</svg>
