<?xml version="1.0" encoding="UTF-8" standalone="no"?>
<!DOCTYPE svg PUBLIC "-//W3C//DTD SVG 1.1//EN" "http://www.w3.org/Graphics/SVG/1.1/DTD/svg11.dtd">
<svg width="100%" height="100%" viewBox="0 0 1280 800" version="1.1" xmlns="http://www.w3.org/2000/svg" xmlns:xlink="http://www.w3.org/1999/xlink" xml:space="preserve" xmlns:serif="http://www.serif.com/" style="fill-rule:evenodd;clip-rule:evenodd;stroke-linejoin:round;stroke-miterlimit:1.41421;">
    <g transform="matrix(0.987484,0,0,0.745305,16.8475,25.557)">
        <path d="M1281.22,-15.431L-16.65,-15.431L-15.005,399.102C196.975,486.885 266.762,380.118 610.852,413.128C685.473,420.287 811.474,434.238 933.96,425.161C1051.9,416.421 1223.28,443.913 1280.4,494.563L1281.22,-15.431Z" style="fill:rgb(26,23,74);fill-opacity:0.7;"/>
    </g>
    <g transform="matrix(0.987484,0,0,0.745305,16.0353,10.689)">
        <path d="M1281.22,-15.431L-16.65,-15.431L-16.65,420.897C187.203,442.126 374.41,445.065 563.702,419.98C712.201,400.301 893.52,411.944 1055.02,429.865C1131.46,438.348 1215.11,442.216 1279.57,433.538L1281.22,-15.431Z" style="fill:rgb(26,23,74);"/>
    </g>
    <g transform="matrix(1,0,0,0.986347,6.09322e-17,-0.027375)">
        <path d="M-0.406,-0.812L-0.4,-0.812L-0.406,-2.005L1281.22,-2.005L1281.21,-0.812L1281.22,-0.812L1280.41,354.924C1163.27,333.124 1042.36,324.885 917.912,323.049C816.823,333.572 687.231,351.382 591.379,351.486C499.261,351.587 420.665,350.404 348.465,333.704C234.393,335.02 118.049,333.379 -0.406,324.385L-0.406,-0.812Z" style="fill:rgb(26,23,74);fill-opacity:0.33;"/>
    </g>
    <g transform="matrix(1,0,0,1,-640,-106)">
        <circle cx="899.695" cy="373.807" r="141.523" style="fill:rgb(170,189,201);"/>
    </g>
    <g transform="matrix(0.703132,0,0,0.803739,-137.616,-562.445)">
        <path d="M537.815,884.636C541.961,882.498 544.384,863.221 542.878,852.444L578.936,852.444C577.289,862.818 580.258,879.272 583.536,884.731C604.656,902 633.243,912.739 669.825,914.837L738.713,914.86L761.184,944.448C721.133,941.04 684.45,940.151 654.699,944.448C612.463,952.701 587.546,977.789 579.981,1008.08C575.673,1062.39 575.976,1116.73 579.981,1171.09L541.833,1171.09C544.302,1117.57 544.302,1063.27 541.833,1008.2C534.354,977.992 509.55,953.214 467.69,944.448C433.362,938.491 397.916,939.299 361.752,944.448L384.458,914.743L442.536,914.762L442.536,914.707C480.685,914.376 521.9,900.199 537.815,884.636Z" style="fill:white;stroke:rgb(170,189,201);stroke-width:2.72px;"/>
    </g>
    <g transform="matrix(0.357187,0,0,0.357187,137.487,-126.175)">
        <path d="M985.878,980.705C983.535,980.076 980.324,979.769 976.285,979.768L910.89,979.768C910.729,980.924 910.03,985.103 910.14,990.4L910.14,1167.32C910.264,1170.98 910.602,1174.38 911.345,1177.32L866.471,1177.32C867.018,1174.61 867.331,1171.15 867.408,1166.94L867.408,990.407C867.463,986.419 867.292,982.74 866.444,979.983L806.699,979.659C801.436,979.52 796.555,979.783 792.022,980.413C792.607,968.889 792.529,957.352 791.804,945.802C794.497,946.258 799.405,946.498 805.681,946.605L972.67,946.471C977.934,946.348 982.59,946.158 985.744,945.802C985.196,957.438 985.264,969.073 985.878,980.705Z" style="fill:white;"/>
    </g>
    <g transform="matrix(0.357187,0,0,0.357187,137.487,-125.818)">
        <path d="M1095.63,1078.48C1114.76,1104.51 1134.66,1129.13 1155.8,1151.55L1155.8,953.135C1155.77,949.819 1155.91,946.21 1155.11,944.231L1197.53,944.162C1196.88,946.246 1196.84,949.673 1196.85,953.211L1196.85,1162.92C1197.15,1169.22 1197.7,1174.63 1199.13,1176.78L1174.17,1176.45L1174.29,1176.61L1122.3,1176.61C1098.62,1147.46 1081.41,1116.77 1062.58,1085.92L1041.63,1086.24L1041.63,1168.49C1041.75,1172.16 1041.83,1175.98 1042.91,1177L998.036,1176.78C998.665,1176.14 998.926,1172.99 998.892,1167.83L998.892,952.518C998.936,948.449 998.736,945.476 998.002,944.911L1041.63,944.706L1041.63,944.913L1063.74,944.913L1063.74,944.932C1066.08,944.853 1069,944.915 1070.87,944.915C1109.93,944.915 1141.41,977.547 1141.41,1016.61C1141.41,1045.49 1120.13,1069.25 1095.63,1078.48ZM1063.74,977.742L1063.74,977.784L1041.63,977.784L1041.63,1053.37L1068.64,1053.37L1068.69,1053.2C1091.03,1051.54 1099.54,1039.55 1099.7,1017.24C1099.87,995.1 1085.2,979.689 1063.74,977.742Z" style="fill:white;"/>
    </g>
    <g transform="matrix(0.357187,0,0,0.357187,137.487,-125.461)">
        <path d="M1759.84,1033.42L1817.41,944.14C1822.72,944.885 1827.27,945.037 1831.54,944.976L1864.66,944.976C1860.75,948.642 1857.36,953.296 1854.21,958.363L1778.83,1070.62L1779.01,1166.67C1779.17,1172.07 1780.57,1176.96 1781.09,1176.96L1734.65,1176.96C1735.6,1176.39 1736.56,1171.34 1736.66,1166.65L1736.66,1069.94L1665.4,961.968C1661.09,954.39 1656.8,947.334 1652.66,944.258L1685.88,944.258C1691.95,944.414 1698.42,944.75 1701.2,943.422L1759.84,1033.42Z" style="fill:white;"/>
    </g>
    <g transform="matrix(0.357187,0,0,0.357187,137.487,-125.461)">
        <path d="M1666.34,980.515C1665.09,980.125 1661.8,980.165 1658.34,980.241L1592.76,980.241L1592.76,1165.54C1593.31,1170.36 1593.89,1175.09 1595.87,1177L1547.89,1176.78C1549.56,1174.1 1549.75,1169.55 1550.03,1165.11L1550.03,980.241L1476.07,980.241L1476.07,957.7C1476.27,952.088 1476.49,946.45 1474.04,943.774L1628.32,943.971C1633.35,943.844 1638.32,943.706 1641.23,943.204L1666.34,980.515Z" style="fill:white;"/>
    </g>
    <g transform="matrix(0.357187,0,0,0.368786,137.487,-136.776)">
        <path d="M1465.42,1177.82L1433.08,1142.31C1427.8,1136.24 1426.04,1134.28 1422.69,1129.86C1422.3,1123.64 1421.93,1115.89 1421.94,1109.74L1421.84,957.529C1421.94,952.87 1422.11,948.165 1420.23,944.706L1466.49,944.706C1464.73,948.362 1464.63,953.55 1464.57,958.767L1464.57,1165.38C1464.6,1169.73 1464.72,1174 1465.42,1177.82Z" style="fill:white;"/>
    </g>
    <g transform="matrix(0.357187,0,0,0.357187,266.7,178.664)">
        <path d="M863.998,87.403L1002.01,240.154L1002.01,104.974C1002,100.311 1001.87,95.803 1000.83,92.558L1043.73,92.344C1042.3,94.737 1042.37,100.072 1042.55,105.617L1042.55,267.81C1042.51,273.428 1042.66,279.055 1043.3,284.704C1046.48,289.097 1049.32,293.339 1052.97,297.302C1070.13,320.812 1092.71,340.507 1110.44,356.009L1105.18,355.901L1059.28,355.901L1032.69,326.474L1032.54,326.474L1002.01,292.686L1002.01,292.518L894.631,173.672L894.631,309.743C894.82,315.723 894.792,322.156 896.772,324.399L853.05,324.399C854.974,320.887 854.566,315.363 854.656,310.27L854.656,129.428L854.656,92.365L854.656,87.403L863.998,87.403Z" style="fill:white;"/>
    </g>
</svg>
